<?xml version="1.0" standalone="no"?>
<!DOCTYPE svg PUBLIC "-//W3C//DTD SVG 20010904//EN"
 "http://www.w3.org/TR/2001/REC-SVG-20010904/DTD/svg10.dtd">
<svg version="1.0" xmlns="http://www.w3.org/2000/svg"
 width="260.000000pt" height="260.000000pt" viewBox="0 0 260.000000 260.000000"
 preserveAspectRatio="xMidYMid meet">
<metadata>
Created by potrace 1.11, written by Peter Selinger 2001-2013
</metadata>
<g transform="translate(0.000000,260.000000) scale(0.100000,-0.100000)"
fill="#000000" stroke="none">
<path d="M1214 2274 c-115 -81 -210 -148 -212 -150 -2 -1 24 -43 57 -93 l61
-90 230 111 c126 61 230 116 230 122 0 6 -36 64 -78 129 l-78 117 -210 -146z"/>
<path d="M995 1861 c-44 -5 -113 -14 -152 -20 l-73 -13 0 -824 0 -824 165 0
165 0 0 310 0 310 85 0 84 0 65 -109 c86 -145 198 -360 231 -444 l27 -67 174
0 c161 0 173 1 167 18 -21 62 -205 424 -272 536 -45 73 -81 136 -81 139 0 3
19 16 43 30 198 117 267 437 147 683 -65 133 -179 219 -341 259 -75 19 -316
27 -434 16z m322 -296 c66 -20 125 -64 148 -111 12 -25 21 -68 23 -117 4 -68
1 -84 -23 -132 -44 -90 -110 -123 -267 -132 l-98 -6 0 250 c0 137 3 253 7 256
12 13 159 7 210 -8z"/>
</g>
</svg>
